<?xml version="1.0" encoding="UTF-8"?>
<svg xmlns="http://www.w3.org/2000/svg" xmlns:xlink="http://www.w3.org/1999/xlink" width="30px" height="30px" viewBox="0 0 30 30" version="1.1">
<defs>
<linearGradient id="linear0" gradientUnits="userSpaceOnUse" x1="115" y1="0" x2="115" y2="230" gradientTransform="matrix(0.130435,0,0,0.130435,0,0)">
<stop offset="0" style="stop-color:rgb(0%,0%,0%);stop-opacity:1;"/>
<stop offset="1" style="stop-color:rgb(24.705882%,18.823529%,38.431373%);stop-opacity:1;"/>
</linearGradient>
<radialGradient id="radial0" gradientUnits="userSpaceOnUse" cx="0" cy="0" fx="0" fy="0" r="1" gradientTransform="matrix(-0.0726499,1.459846,-3.25409,-0.161941,15.053609,22.911652)">
<stop offset="0" style="stop-color:rgb(51.764706%,36.078431%,90.588235%);stop-opacity:1;"/>
<stop offset="1" style="stop-color:rgb(68.627451%,45.098039%,84.705882%);stop-opacity:1;"/>
</radialGradient>
<radialGradient id="radial1" gradientUnits="userSpaceOnUse" cx="0" cy="0" fx="0" fy="0" r="1" gradientTransform="matrix(-0.146683,3.009053,-6.570793,-0.320308,15.022435,15.358565)">
<stop offset="0" style="stop-color:rgb(51.764706%,36.078431%,90.588235%);stop-opacity:1;"/>
<stop offset="1" style="stop-color:rgb(68.627451%,45.098039%,84.705882%);stop-opacity:1;"/>
</radialGradient>
<radialGradient id="radial2" gradientUnits="userSpaceOnUse" cx="0" cy="0" fx="0" fy="0" r="1" gradientTransform="matrix(-0.146683,3.009053,-6.570793,-0.320308,15.022435,15.358565)">
<stop offset="0" style="stop-color:rgb(51.764706%,36.078431%,90.588235%);stop-opacity:1;"/>
<stop offset="1" style="stop-color:rgb(68.627451%,45.098039%,84.705882%);stop-opacity:1;"/>
</radialGradient>
<radialGradient id="radial3" gradientUnits="userSpaceOnUse" cx="0" cy="0" fx="0" fy="0" r="1" gradientTransform="matrix(-0.146683,3.009053,-6.570793,-0.320308,15.022435,15.358565)">
<stop offset="0" style="stop-color:rgb(51.764706%,36.078431%,90.588235%);stop-opacity:1;"/>
<stop offset="1" style="stop-color:rgb(68.627451%,45.098039%,84.705882%);stop-opacity:1;"/>
</radialGradient>
</defs>
<g id="surface1">
<path style=" stroke:none;fill-rule:nonzero;fill:url(#linear0);" d="M 15 0 C 23.285156 0 30 6.714844 30 15 C 30 23.285156 23.285156 30 15 30 C 6.714844 30 0 23.285156 0 15 C 0 6.714844 6.714844 0 15 0 Z M 15 0 "/>
<path style=" stroke:none;fill-rule:evenodd;fill:url(#radial0);" d="M 10.003906 22.910156 C 10.941406 21.570312 12.851562 20.648438 15.054688 20.648438 C 17.257812 20.648438 19.164062 21.570312 20.105469 22.910156 C 19.164062 24.253906 17.257812 25.175781 15.054688 25.175781 C 12.851562 25.175781 10.941406 24.253906 10.003906 22.910156 Z M 10.003906 22.910156 "/>
<path style=" stroke:none;fill-rule:nonzero;fill:url(#radial1);" d="M 9.96875 12.933594 C 10.90625 11.605469 12.816406 10.695312 15.015625 10.695312 C 17.21875 10.695312 19.125 11.605469 20.0625 12.933594 C 19.125 14.261719 17.21875 15.171875 15.015625 15.171875 C 12.816406 15.171875 10.90625 14.261719 9.96875 12.933594 Z M 9.96875 12.933594 "/>
<path style=" stroke:none;fill-rule:nonzero;fill:url(#radial2);" d="M 15.113281 17.960938 C 13.75 19.277344 11.898438 20.019531 9.96875 20.019531 C 8.039062 20.019531 6.191406 19.277344 4.824219 17.960938 L 9.96875 12.933594 Z M 15.113281 17.960938 "/>
<path style=" stroke:none;fill-rule:nonzero;fill:url(#radial3);" d="M 25.21875 17.964844 C 23.855469 19.28125 22.003906 20.019531 20.074219 20.019531 C 18.144531 20.019531 16.296875 19.28125 14.933594 17.964844 L 20.074219 12.933594 Z M 25.21875 17.964844 "/>
</g>
</svg>
